<?xml version="1.0" encoding="UTF-8" standalone="no"?>
<!DOCTYPE svg PUBLIC "-//W3C//DTD SVG 1.1//EN" "http://www.w3.org/Graphics/SVG/1.1/DTD/svg11.dtd">
<svg width="100%" height="100%" viewBox="0 0 320 320" version="1.1" xmlns="http://www.w3.org/2000/svg" xmlns:xlink="http://www.w3.org/1999/xlink" xml:space="preserve" xmlns:serif="http://www.serif.com/" style="fill-rule:evenodd;clip-rule:evenodd;stroke-linejoin:round;stroke-miterlimit:2;">
    <g transform="matrix(0.823672,0,0,0.823672,28.2125,28.2125)">
        <g transform="matrix(1.48103,0,0,1.48103,306.849,354.252)">
            <path d="M0,-28.248L6.082,-28.248L6.082,0L0,0L0,-11.063L-16.672,-11.063L-16.672,0L-22.754,0L-22.754,-28.248L-16.672,-28.248L-16.672,-17.183L0,-17.183L0,-28.248ZM-28.295,-22.125L-50.384,-22.125L-50.384,-6.118L-28.295,-6.118L-28.295,0L-50.658,0C-52.28,0 -53.653,-0.563 -54.778,-1.686C-55.903,-2.809 -56.464,-4.182 -56.464,-5.806L-56.464,-22.44C-56.464,-24.061 -55.903,-25.435 -54.778,-26.56C-53.653,-27.686 -52.28,-28.248 -50.658,-28.248L-28.295,-28.248L-28.295,-22.125ZM-61.947,-28.248L-61.947,-22.125L-81.876,-22.125L-81.876,-17.183L-65.831,-17.183L-65.831,-11.063L-81.876,-11.063L-81.876,-6.118L-61.947,-6.118L-61.947,0L-88.037,0L-88.037,-28.248L-61.947,-28.248ZM-109.409,-16.831L-99.877,-28.248L-93.559,-28.248L-93.559,0L-99.679,0L-99.679,-18.95L-109.409,-7.334L-119.179,-18.91L-119.179,0L-125.259,0L-125.259,-28.248L-118.984,-28.248L-109.409,-16.831ZM-136.917,-28.248L-130.797,-28.248L-130.797,0L-136.917,0L-136.917,-28.248ZM-148.593,-15.416L-164.6,-15.416L-164.6,-22.125L-148.593,-22.125L-148.593,-15.416ZM-144.161,-11.006C-143.01,-12.141 -142.435,-13.509 -142.435,-15.104L-142.435,-22.402C-142.435,-23.995 -143.01,-25.363 -144.161,-26.503C-145.312,-27.638 -146.686,-28.207 -148.281,-28.207L-170.683,-28.207L-170.683,0L-164.601,0L-164.601,-9.063C-164.577,-9.037 -164.537,-9.022 -164.484,-9.022C-164.484,-9.18 -164.522,-9.258 -164.601,-9.258L-156.519,-9.299L-148.712,0L-142.435,0L-142.435,-2.08L-148.555,-9.299L-148.281,-9.299C-146.686,-9.299 -145.312,-9.866 -144.161,-11.006M-204.388,-28.248L-176.14,-28.248L-176.14,-22.125L-187.203,-22.125L-187.203,0L-193.323,0L-193.323,-22.125L-204.388,-22.125L-204.388,-28.248Z" style="fill:rgb(29,53,101);fill-rule:nonzero;"/>
        </g>
        <g transform="matrix(7.28659,0,0,7.28659,191.321,234.477)">
            <path d="M0,-28.588L-12.919,-32.276L-12.919,7.096L0,4.493L0,-28.588ZM17.091,-30.683L2.46,-36.88L2.46,8.292L17.091,4.275L17.091,-30.683ZM-15.053,-23.589L-25.688,-25.334L-25.688,3.408L-15.053,1.89L-15.053,-23.589Z" style="fill:rgb(191,191,195);fill-rule:nonzero;"/>
        </g>
    </g>
</svg>
